<svg xmlns="http://www.w3.org/2000/svg" x="0px" y="0px"
width="25" height="25"
viewBox="0 0 172 172"
style=" fill:#undefined;"><g fill="none" fill-rule="nonzero" stroke="none" stroke-width="1" stroke-linecap="butt" stroke-linejoin="miter" stroke-miterlimit="10" stroke-dasharray="" stroke-dashoffset="0" font-family="none" font-weight="none" font-size="none" text-anchor="none" style="mix-blend-mode: normal"><path d="M0,172v-172h172v172z" fill="none"></path><g fill="#484444"><path d="M86,14.33333c-39.5815,0 -71.66667,32.08517 -71.66667,71.66667c0,35.9265 26.4665,65.5965 60.9525,70.778v-51.78633h-17.73033v-18.84117h17.73033v-12.5345c0,-20.75467 10.11217,-29.8635 27.36233,-29.8635c8.26317,0 12.62767,0.60917 14.69883,0.88867v16.44033h-11.76767c-7.32433,0 -9.88283,6.9445 -9.88283,14.7705v10.2985h21.46417l-2.90967,18.84117h-18.54733v51.93683c34.9805,-4.73717 61.963,-34.65083 61.963,-70.9285c0,-39.5815 -32.08517,-71.66667 -71.66667,-71.66667z"></path></g></g></svg>