<svg xmlns="http://www.w3.org/2000/svg" x="0px" y="0px"
width="24" height="24"
viewBox="0 0 172 172"
style=" fill:#undefined;"><g transform="translate(0.516,0.516) scale(0.994,0.994)"><g fill="none" fill-rule="nonzero" stroke="none" stroke-width="1" stroke-linecap="butt" stroke-linejoin="none" stroke-miterlimit="10" stroke-dasharray="" stroke-dashoffset="0" font-family="none" font-weight="none" font-size="none" text-anchor="none" style="mix-blend-mode: normal"><g fill="#000000" stroke="#cccccc" stroke-linejoin="round"><path d="M165.12,86c0,43.62608 -35.49392,79.12 -79.12,79.12c-13.0376,0 -25.92728,-3.24048 -37.37216,-9.38432l-37.48224,9.28456c-0.27176,0.06536 -0.5504,0.09976 -0.8256,0.09976c-0.91848,0 -1.81288,-0.36808 -2.46992,-1.04576c-0.85312,-0.8772 -1.17304,-2.14312 -0.8428,-3.32304l10.06544,-35.9136c-6.6736,-11.81984 -10.19272,-25.2152 -10.19272,-38.8376c0,-43.62608 35.49392,-79.12 79.12,-79.12c43.62608,0 79.12,35.49392 79.12,79.12zM126.98416,104.3868c-0.50912,-0.83592 -1.86448,-1.33816 -3.89408,-2.34264c-2.0296,-1.00448 -12.01592,-5.85488 -13.8804,-6.52224c-1.86448,-0.6708 -3.21984,-1.00104 -4.57176,1.00448c-1.35192,2.00552 -5.246,6.52224 -6.42936,7.86384c-1.18336,1.33816 -2.37016,1.50672 -4.39976,0.50224c-2.0296,-1.00448 -8.57592,-3.12352 -16.33312,-9.95536c-6.04064,-5.31824 -10.11704,-11.8852 -11.3004,-13.89416c-1.18336,-2.00896 -0.12728,-3.09256 0.89096,-4.0936c0.91504,-0.90128 2.0296,-2.34264 3.04784,-3.51568c1.01824,-1.17304 1.35536,-2.00896 2.0296,-3.34712c0.67424,-1.33816 0.33712,-2.5112 -0.172,-3.51568c-0.50224,-1.00792 -4.56488,-10.87728 -6.25736,-14.8952c-1.64776,-3.91472 -3.32304,-3.38152 -4.57176,-3.44344c-1.1868,-0.05504 -2.53872,-0.07224 -3.89408,-0.07224c-1.35536,0 -3.55352,0.50224 -5.418,2.5112c-1.86448,2.00896 -7.11048,6.8628 -7.11048,16.73216c0,9.86936 7.27904,19.40504 8.29384,20.7432c1.01824,1.33816 14.32416,21.59632 34.69928,30.28576c4.84696,2.06744 8.63096,3.29896 11.57904,4.22776c4.86416,1.52736 9.29488,1.3072 12.7968,0.79464c3.90096,-0.57448 12.01936,-4.8504 13.71184,-9.53568c1.69248,-4.68184 1.69248,-8.69976 1.18336,-9.53224z"></path></g><path d="M0,172v-172h172v172z" fill="none" stroke="none" stroke-linejoin="miter"></path><path d="" fill="none" stroke="none" stroke-linejoin="miter"></path><g fill="#4d4a4a" stroke="none" stroke-linejoin="miter"><path d="M86,6.88c-43.62608,0 -79.12,35.49392 -79.12,79.12c0,13.6224 3.51912,27.01776 10.19272,38.8376l-10.06544,35.9136c-0.33024,1.17992 -0.01032,2.44584 0.8428,3.32304c0.65704,0.67768 1.55144,1.04576 2.46992,1.04576c0.2752,0 0.55384,-0.0344 0.8256,-0.09976l37.48224,-9.28456c11.44488,6.14384 24.33456,9.38432 37.37216,9.38432c43.62608,0 79.12,-35.49392 79.12,-79.12c0,-43.62608 -35.49392,-79.12 -79.12,-79.12zM125.8008,113.91904c-1.69248,4.68528 -9.81088,8.9612 -13.71184,9.53568c-3.50192,0.51256 -7.93264,0.73272 -12.7968,-0.79464c-2.94808,-0.9288 -6.73208,-2.16032 -11.57904,-4.22776c-20.37512,-8.68944 -33.68104,-28.9476 -34.69928,-30.28576c-1.0148,-1.33816 -8.29384,-10.87384 -8.29384,-20.7432c0,-9.86936 5.246,-14.7232 7.11048,-16.73216c1.86448,-2.00896 4.06264,-2.5112 5.418,-2.5112c1.35536,0 2.70728,0.0172 3.89408,0.07224c1.24872,0.06192 2.924,-0.47128 4.57176,3.44344c1.69248,4.01792 5.75512,13.88728 6.25736,14.8952c0.50912,1.00448 0.84624,2.17752 0.172,3.51568c-0.67424,1.33816 -1.01136,2.17408 -2.0296,3.34712c-1.01824,1.17304 -2.1328,2.6144 -3.04784,3.51568c-1.01824,1.00104 -2.07432,2.08464 -0.89096,4.0936c1.18336,2.00896 5.25976,8.57592 11.3004,13.89416c7.7572,6.83184 14.30352,8.95088 16.33312,9.95536c2.0296,1.00448 3.2164,0.83592 4.39976,-0.50224c1.18336,-1.3416 5.07744,-5.85832 6.42936,-7.86384c1.35192,-2.00552 2.70728,-1.67528 4.57176,-1.00448c1.86448,0.66736 11.8508,5.51776 13.8804,6.52224c2.0296,1.00448 3.38496,1.50672 3.89408,2.34264c0.50912,0.83248 0.50912,4.8504 -1.18336,9.53224z"></path></g><path d="" fill="none" stroke="none" stroke-linejoin="miter"></path></g></g></svg>